<svg xmlns="http://www.w3.org/2000/svg" width="300" height="100" viewBox="0 0 300 100">
  <metadata><?xpacket begin="﻿" id="W5M0MpCehiHzreSzNTczkc9d"?>
<x:xmpmeta xmlns:x="adobe:ns:meta/" x:xmptk="Adobe XMP Core 5.6-c142 79.160924, 2017/07/13-01:06:39        ">
   <rdf:RDF xmlns:rdf="http://www.w3.org/1999/02/22-rdf-syntax-ns#">
      <rdf:Description rdf:about=""/>
   </rdf:RDF>
</x:xmpmeta>
<?xpacket end="w"?></metadata>
<defs>
    <style>
      .cls-1 {
        fill-rule: evenodd;
      }
    </style>
  </defs>
  <g id="Artboard_1" data-name="Artboard 1">
    <path id="Color_Fill_1" data-name="Color Fill 1" class="cls-1" d="M56.281,24.078H44.732V53.4c0,2.175-.15,5.85-2.625,8.4a9.224,9.224,0,0,1-6.975,2.625A9.224,9.224,0,0,1,28.157,61.8c-2.475-2.55-2.625-6.225-2.625-8.4V24.078H13.983V53.7c0,4.8.6,10.724,5.55,15.824,4.8,4.95,10.35,5.7,15.6,5.7s10.8-.75,15.6-5.7c4.95-5.1,5.55-11.025,5.55-15.824V24.078ZM98.206,27.9a24.178,24.178,0,0,0-14.849-4.95c-4.65,0-8.85.975-12.374,4.575a15.377,15.377,0,0,0-4.35,11.25,12.3,12.3,0,0,0,3,8.7c1.95,2.1,4.65,3.15,6.975,3.975l4.125,1.425c1.425,0.525,4.5,1.65,5.85,2.775a4.411,4.411,0,0,1,1.725,3.6,5.176,5.176,0,0,1-1.8,4.05,7.987,7.987,0,0,1-5.25,1.725,11.621,11.621,0,0,1-6.3-1.8,30.627,30.627,0,0,1-4.65-3.825l-6,8.25a31.818,31.818,0,0,0,7.35,5.475,21.2,21.2,0,0,0,9.9,2.1c3.3,0,9.75-.45,14.174-5.1,2.625-2.7,4.425-7.2,4.425-12.374a12.475,12.475,0,0,0-3.675-9.3,20.06,20.06,0,0,0-6.825-3.825L85.907,43.2c-3.375-1.275-5.1-1.725-6.3-2.85a3.508,3.508,0,0,1-1.125-2.775,4.473,4.473,0,0,1,1.275-3.15A6.255,6.255,0,0,1,84.632,32.7c1.425,0,4.65.225,8.4,3.6Zm38.549-3.825H108.481V74.1h28.274v-9.75H120.031v-11.1h15.9V43.5h-15.9V33.828h16.724v-9.75Zm9.376,0V74.1h27.074v-9.75H157.681V24.078h-11.55Zm61.874,0H179.731V74.1h28.274v-9.75H191.281v-11.1h15.9V43.5h-15.9V33.828h16.724v-9.75Zm40.35,3.825a24.18,24.18,0,0,0-14.85-4.95c-4.649,0-8.849.975-12.374,4.575a15.376,15.376,0,0,0-4.35,11.25,12.3,12.3,0,0,0,3,8.7c1.95,2.1,4.65,3.15,6.975,3.975l4.125,1.425c1.425,0.525,4.5,1.65,5.849,2.775a4.411,4.411,0,0,1,1.725,3.6,5.176,5.176,0,0,1-1.8,4.05,7.985,7.985,0,0,1-5.249,1.725,11.622,11.622,0,0,1-6.3-1.8,30.634,30.634,0,0,1-4.65-3.825l-6,8.25a31.82,31.82,0,0,0,7.35,5.475,21.2,21.2,0,0,0,9.9,2.1c3.3,0,9.749-.45,14.174-5.1,2.625-2.7,4.425-7.2,4.425-12.374a12.475,12.475,0,0,0-3.675-9.3,20.061,20.061,0,0,0-6.825-3.825l-3.75-1.425c-3.374-1.275-5.1-1.725-6.3-2.85a3.508,3.508,0,0,1-1.125-2.775,4.473,4.473,0,0,1,1.275-3.15A6.255,6.255,0,0,1,234.78,32.7c1.425,0,4.65.225,8.4,3.6Zm41.249,0a24.179,24.179,0,0,0-14.849-4.95c-4.65,0-8.85.975-12.375,4.575a15.376,15.376,0,0,0-4.35,11.25,12.3,12.3,0,0,0,3,8.7c1.95,2.1,4.65,3.15,6.975,3.975l4.125,1.425c1.425,0.525,4.5,1.65,5.849,2.775a4.411,4.411,0,0,1,1.725,3.6,5.176,5.176,0,0,1-1.8,4.05,7.983,7.983,0,0,1-5.249,1.725,11.622,11.622,0,0,1-6.3-1.8,30.634,30.634,0,0,1-4.65-3.825l-6,8.25a31.82,31.82,0,0,0,7.35,5.475,21.2,21.2,0,0,0,9.9,2.1c3.3,0,9.749-.45,14.174-5.1,2.625-2.7,4.425-7.2,4.425-12.374a12.475,12.475,0,0,0-3.675-9.3,20.061,20.061,0,0,0-6.825-3.825L277.3,43.2c-3.374-1.275-5.1-1.725-6.3-2.85a3.508,3.508,0,0,1-1.125-2.775,4.473,4.473,0,0,1,1.275-3.15A6.256,6.256,0,0,1,276.03,32.7c1.424,0,4.649.225,8.4,3.6Z"/>
  </g>
</svg>
